<?xml version="1.0" standalone="no"?>
<!DOCTYPE svg PUBLIC "-//W3C//DTD SVG 20010904//EN"
 "http://www.w3.org/TR/2001/REC-SVG-20010904/DTD/svg10.dtd">
<svg version="1.0" xmlns="http://www.w3.org/2000/svg"
 width="700.000000pt" height="700.000000pt" viewBox="0 0 700.000000 700.000000"
 preserveAspectRatio="xMidYMid meet">
<metadata>
Created by potrace 1.14, written by Peter Selinger 2001-2017
</metadata>
<g transform="translate(0.000000,700.000000) scale(0.100000,-0.100000)"
fill="#000000" stroke="none">
<path d="M3485 3469 c-577 -78 -983 -496 -1070 -1100 -19 -136 -19 -394 0
-542 66 -503 332 -867 746 -1018 146 -54 238 -70 429 -76 245 -8 523 23 803
88 l87 21 0 619 0 619 -185 0 -185 0 0 -494 0 -493 -82 -18 c-127 -26 -427
-32 -543 -10 -183 34 -321 109 -445 242 -342 366 -334 1213 15 1592 175 190
440 280 745 251 182 -17 404 -77 508 -136 l42 -25 11 28 c6 15 24 62 39 103
15 41 37 99 49 127 l21 53 -84 39 c-176 85 -400 131 -661 136 -93 2 -201 0
-240 -6z"/>
<path d="M5060 2100 l0 -1320 795 0 795 0 0 160 0 160 -610 0 -610 0 0 1160 0
1160 -185 0 -185 0 0 -1320z"/>
</g>
</svg>
